<svg width="20" height="20" viewBox="0 0 20 20" fill="none" xmlns="http://www.w3.org/2000/svg">
<path d="M16.6668 18.3335H15.0002V16.6668C15.0002 16.0038 14.7368 15.3679 14.2679 14.8991C13.7991 14.4302 13.1632 14.1668 12.5002 14.1668H7.50016C6.83712 14.1668 6.20124 14.4302 5.7324 14.8991C5.26355 15.3679 5.00016 16.0038 5.00016 16.6668V18.3335H3.3335V16.6668C3.3335 15.5618 3.77248 14.502 4.55388 13.7206C5.33529 12.9391 6.39509 12.5002 7.50016 12.5002H12.5002C13.6052 12.5002 14.665 12.9391 15.4464 13.7206C16.2278 14.502 16.6668 15.5618 16.6668 16.6668V18.3335ZM10.0002 10.8335C9.34355 10.8335 8.69337 10.7042 8.08675 10.4529C7.48012 10.2016 6.92892 9.83332 6.46463 9.36903C6.00034 8.90474 5.63204 8.35354 5.38076 7.74691C5.12949 7.14029 5.00016 6.49011 5.00016 5.8335C5.00016 5.17689 5.12949 4.52671 5.38076 3.92008C5.63204 3.31345 6.00034 2.76226 6.46463 2.29796C6.92892 1.83367 7.48012 1.46537 8.08675 1.2141C8.69337 0.962825 9.34355 0.833496 10.0002 0.833496C11.3262 0.833496 12.598 1.36028 13.5357 2.29796C14.4734 3.23564 15.0002 4.50741 15.0002 5.8335C15.0002 7.15958 14.4734 8.43135 13.5357 9.36903C12.598 10.3067 11.3262 10.8335 10.0002 10.8335ZM10.0002 9.16683C10.8842 9.16683 11.7321 8.81564 12.3572 8.19052C12.9823 7.5654 13.3335 6.71755 13.3335 5.8335C13.3335 4.94944 12.9823 4.10159 12.3572 3.47647C11.7321 2.85135 10.8842 2.50016 10.0002 2.50016C9.11611 2.50016 8.26826 2.85135 7.64314 3.47647C7.01802 4.10159 6.66683 4.94944 6.66683 5.8335C6.66683 6.71755 7.01802 7.5654 7.64314 8.19052C8.26826 8.81564 9.11611 9.16683 10.0002 9.16683Z" fill="black"/>
</svg>
