<svg width="32" height="32" viewBox="0 0 32 32" fill="none" xmlns="http://www.w3.org/2000/svg">
<path d="M9.92392 7.13281C10.7759 7.13281 11.5639 7.19948 12.2839 7.39681C12.9373 7.51687 13.5609 7.76325 14.1199 8.12215C14.6453 8.45148 15.0386 8.91415 15.2999 9.50748C15.5626 10.1008 15.6933 10.8275 15.6933 11.6181C15.6933 12.5421 15.4973 13.3328 15.0386 13.9261C14.6453 14.5208 13.9893 15.0475 13.2026 15.4435C14.3173 15.7741 15.1693 16.3675 15.6933 17.1581C16.2186 17.9501 16.5466 18.9395 16.5466 20.0608C16.5466 20.9848 16.3492 21.7755 16.0212 22.4355C15.6932 23.0955 15.1692 23.6888 14.5786 24.0848C13.937 24.5093 13.2277 24.8213 12.4813 25.0075C11.6946 25.2062 10.9079 25.3381 10.1213 25.3381H1.33325V7.13281H9.92392ZM9.39858 14.5195C10.1199 14.5195 10.7106 14.3221 11.1693 13.9928C11.6279 13.6635 11.8253 13.0688 11.8253 12.3435C11.8253 11.9475 11.7586 11.5515 11.6279 11.2888C11.4972 11.0248 11.2999 10.8261 11.0386 10.6288C10.7759 10.4968 10.5133 10.3648 10.1853 10.2995C9.85725 10.2328 9.53058 10.2328 9.13592 10.2328H5.33325V14.5208H9.39992L9.39858 14.5195ZM9.59592 22.3035C9.98925 22.3035 10.3826 22.2368 10.7106 22.1715C11.0417 22.1085 11.355 21.9733 11.6279 21.7755C11.8951 21.5825 12.1186 21.3353 12.2839 21.0501C12.4146 20.7208 12.5466 20.3248 12.5466 19.8635C12.5466 18.9395 12.2839 18.2795 11.7599 17.8181C11.2346 17.4221 10.5133 17.2248 9.66125 17.2248H5.33325V22.3048H9.59592V22.3035ZM22.2519 22.2368C22.7759 22.7648 23.5626 23.0288 24.6119 23.0288C25.3332 23.0288 25.9892 22.8315 26.5132 22.5021C27.0386 22.1061 27.3666 21.7101 27.4972 21.3141H30.7106C30.1852 22.8968 29.3986 24.0182 28.3506 24.7435C27.2999 25.4035 26.0546 25.7995 24.5466 25.7995C23.5817 25.8024 22.625 25.6233 21.7266 25.2715C20.9182 24.9682 20.1973 24.4699 19.6279 23.8208C19.019 23.2136 18.5689 22.4658 18.3172 21.6435C17.9893 20.7861 17.8572 19.8635 17.8572 18.8075C17.8572 17.8181 17.9893 16.8955 18.3172 16.0368C18.6326 15.2103 19.0992 14.4497 19.6933 13.7941C20.2839 13.2008 21.0052 12.6741 21.7919 12.3435C22.6675 11.9916 23.6029 11.8123 24.5466 11.8155C25.6612 11.8155 26.6452 12.0141 27.4972 12.4755C28.3506 12.9368 29.0052 13.4648 29.5306 14.2568C30.0665 15.0175 30.4658 15.8658 30.7106 16.7635C30.8412 17.6861 30.9066 18.6101 30.8412 19.6648H21.3332C21.3332 20.7208 21.7266 21.7101 22.2519 22.2381V22.2368ZM26.3826 15.3115C25.9239 14.8501 25.2026 14.5861 24.3492 14.5861C23.7599 14.5861 23.2999 14.7181 22.9066 14.9155C22.5132 15.1141 22.2519 15.3781 21.9893 15.6421C21.7479 15.8972 21.5882 16.2184 21.5306 16.5648C21.4639 16.8955 21.3986 17.1581 21.3986 17.4221H27.2999C27.1692 16.4328 26.8412 15.7741 26.3826 15.3115ZM20.6119 8.38615H27.9559V10.1675H20.6132V8.38615H20.6119Z" fill="black"/>
</svg>
