<svg width="20" height="20" viewBox="0 0 20 20" fill="none" xmlns="http://www.w3.org/2000/svg">
<path d="M7.805 8.90167C8.58695 10.2754 9.7246 11.4131 11.0983 12.195L11.835 11.1633C11.9535 10.9974 12.1286 10.8807 12.3273 10.8353C12.526 10.7898 12.7345 10.8188 12.9133 10.9167C14.0919 11.5608 15.3935 11.9481 16.7325 12.0533C16.9415 12.0699 17.1365 12.1646 17.2788 12.3186C17.421 12.4726 17.5 12.6745 17.5 12.8842V16.6025C17.5 16.8088 17.4235 17.0078 17.2853 17.161C17.1471 17.3142 16.9569 17.4106 16.7517 17.4317C16.31 17.4775 15.865 17.5 15.4167 17.5C8.28333 17.5 2.5 11.7167 2.5 4.58333C2.5 4.135 2.5225 3.69 2.56833 3.24833C2.58938 3.04308 2.68582 2.85293 2.83899 2.71469C2.99216 2.57646 3.19117 2.49996 3.3975 2.5H7.11583C7.32547 2.49997 7.52741 2.57896 7.6814 2.72121C7.83539 2.86346 7.93011 3.05852 7.94667 3.2675C8.05185 4.60649 8.43923 5.90807 9.08333 7.08667C9.18122 7.26547 9.21018 7.47395 9.16472 7.67266C9.11927 7.87137 9.00255 8.04654 8.83667 8.165L7.805 8.90167ZM5.70333 8.35417L7.28667 7.22333C6.83732 6.25341 6.52946 5.22403 6.3725 4.16667H4.175C4.17 4.305 4.1675 4.44417 4.1675 4.58333C4.16667 10.7967 9.20333 15.8333 15.4167 15.8333C15.5558 15.8333 15.695 15.8308 15.8333 15.825V13.6275C14.776 13.4705 13.7466 13.1627 12.7767 12.7133L11.6458 14.2967C11.1906 14.1198 10.7483 13.9109 10.3225 13.6717L10.2742 13.6442C8.63965 12.7139 7.28607 11.3604 6.35583 9.72583L6.32833 9.6775C6.08909 9.25166 5.88024 8.80945 5.70333 8.35417Z" fill="white"/>
</svg>
