<svg width="32" height="32" viewBox="0 0 32 32" fill="none" xmlns="http://www.w3.org/2000/svg">
<path d="M26.6521 15.4297C26.5428 13.3309 25.8128 11.3118 24.5547 9.62833C24.1714 10.0412 23.7617 10.4286 23.3281 10.7883C21.996 11.8948 20.5074 12.7979 18.9107 13.4683C19.1334 13.935 19.3374 14.387 19.5174 14.8137V14.8177C19.5682 14.9369 19.6171 15.0569 19.6641 15.1777C21.6827 14.951 23.8107 15.0337 25.8734 15.3123C26.1481 15.3497 26.4067 15.3897 26.6521 15.4297ZM14.1387 5.49633C15.4381 7.32722 16.6364 9.22784 17.7281 11.1897C19.3587 10.547 20.7067 9.73633 21.7921 8.83366C22.1688 8.52317 22.5235 8.1868 22.8534 7.82699C20.9347 6.21328 18.5072 5.3301 16.0001 5.33366C15.3761 5.33323 14.7533 5.38721 14.1387 5.49499V5.49633ZM5.67075 13.3297C6.57905 13.3067 7.48627 13.252 8.39075 13.1657C10.5769 12.9701 12.7445 12.6037 14.8734 12.0697C13.7608 10.1366 12.5595 8.25594 11.2734 6.43366C9.89971 7.11419 8.68843 8.08221 7.72174 9.27204C6.75505 10.4619 6.05557 11.8457 5.67075 13.3297ZM7.71075 22.7137C8.22808 21.9577 8.90808 21.107 9.81075 20.1817C11.7494 18.195 14.0374 16.6483 16.6854 15.795L16.7681 15.771C16.5481 15.2857 16.3414 14.8523 16.1334 14.4443C13.6854 15.1577 11.1067 15.603 8.53741 15.8337C7.28408 15.947 6.16008 15.9963 5.33341 16.0043C5.33105 18.4478 6.17114 20.8174 7.71208 22.7137H7.71075ZM20.0067 25.887C19.4926 23.294 18.7648 20.748 17.8307 18.275C15.1614 19.2443 13.0347 20.6617 11.3907 22.3523C10.7273 23.0222 10.1385 23.7621 9.63475 24.559C11.4732 25.9307 13.7063 26.6703 16.0001 26.667C17.3733 26.669 18.7339 26.405 20.0067 25.8897V25.887ZM22.5041 24.4537C24.5858 22.8533 26.0039 20.5413 26.4867 17.9603C26.0334 17.847 25.4587 17.7337 24.8267 17.6457C23.4216 17.4433 21.9958 17.4285 20.5867 17.6017C21.3802 19.8401 22.0207 22.1298 22.5041 24.455V24.4537ZM16.0001 29.3337C8.63608 29.3337 2.66675 23.3643 2.66675 16.0003C2.66675 8.63633 8.63608 2.66699 16.0001 2.66699C23.3641 2.66699 29.3334 8.63633 29.3334 16.0003C29.3334 23.3643 23.3641 29.3337 16.0001 29.3337Z" fill="black"/>
</svg>
