<svg width="20" height="20" viewBox="0 0 20 20" fill="none" xmlns="http://www.w3.org/2000/svg">
<path d="M10.8332 16.6153C12.5142 16.4014 14.0508 15.5554 15.1305 14.2493C16.2102 12.9432 16.7521 11.2749 16.646 9.58364C16.5399 7.89233 15.7937 6.3049 14.5592 5.14398C13.3247 3.98305 11.6945 3.33576 9.99984 3.33366C8.30314 3.3324 6.66979 3.97811 5.43262 5.13922C4.19545 6.30034 3.44754 7.88949 3.34129 9.58286C3.23504 11.2762 3.77845 12.9464 4.86079 14.253C5.94313 15.5597 7.48295 16.4045 9.1665 16.6153V11.667H7.49984V10.0003H9.1665V8.62199C9.1665 7.50783 9.28317 7.10366 9.49984 6.69616C9.71327 6.29298 10.0431 5.9634 10.4465 5.75033C10.7648 5.57949 11.1607 5.47699 11.8523 5.43283C12.1265 5.41533 12.4815 5.43699 12.9173 5.49949V7.08283H12.4998C11.7357 7.08283 11.4198 7.11866 11.2315 7.21949C11.1191 7.27729 11.0276 7.36878 10.9698 7.48116C10.8698 7.66949 10.8332 7.85616 10.8332 8.62116V10.0003H12.9165L12.4998 11.667H10.8332V16.6153ZM9.99984 18.3337C5.39734 18.3337 1.6665 14.6028 1.6665 10.0003C1.6665 5.39783 5.39734 1.66699 9.99984 1.66699C14.6023 1.66699 18.3332 5.39783 18.3332 10.0003C18.3332 14.6028 14.6023 18.3337 9.99984 18.3337Z" fill="white"/>
</svg>
