<svg width="20" height="20" viewBox="0 0 20 20" fill="none" xmlns="http://www.w3.org/2000/svg">
<path d="M4.90252 15.5437C4.65252 15.3771 4.43752 15.1646 4.18586 14.8637C4.05523 14.7039 3.92578 14.543 3.79752 14.3812C3.41169 13.9021 3.16836 13.6812 2.91669 13.5904C2.70861 13.5157 2.53872 13.3614 2.4444 13.1614C2.35009 12.9615 2.33907 12.7322 2.41377 12.5242C2.48848 12.3161 2.64278 12.1462 2.84274 12.0519C3.0427 11.9576 3.27194 11.9465 3.48002 12.0212C4.10669 12.2462 4.53086 12.6337 5.10252 13.3446C5.02419 13.2471 5.38586 13.7004 5.46336 13.7937C5.62169 13.9829 5.73836 14.0979 5.83002 14.1587C6.00002 14.2729 6.31919 14.3221 6.78836 14.2754C6.80752 13.9571 6.86669 13.6479 6.95669 13.3629C4.48336 12.7579 3.08336 11.1629 3.08336 8.03291C3.08336 6.99957 3.39169 6.06957 3.96502 5.28957C3.78336 4.54457 3.81086 3.64374 4.21669 2.62957C4.26275 2.51485 4.33375 2.41181 4.42455 2.32793C4.51536 2.24404 4.62369 2.18141 4.74169 2.14457C4.80919 2.12457 4.84752 2.1154 4.91502 2.1054C5.58419 2.0029 6.52919 2.24707 7.76086 3.01874C8.49485 2.84714 9.24624 2.76101 10 2.76207C10.76 2.76207 11.515 2.84874 12.2367 3.01874C13.4675 2.24124 14.4142 1.99707 15.0884 2.1054C15.1592 2.11624 15.2192 2.1304 15.27 2.14707C15.3857 2.18522 15.4916 2.24827 15.5803 2.33177C15.669 2.41528 15.7383 2.51722 15.7834 2.63041C16.1892 3.64374 16.2167 4.54457 16.035 5.28874C16.6109 6.06874 16.9167 6.99291 16.9167 8.03291C16.9167 11.1637 15.5217 12.7537 13.0484 13.3596C13.1525 13.7054 13.2067 14.0921 13.2067 14.5096C13.2068 15.264 13.2034 16.0185 13.1967 16.7729C13.3838 16.8137 13.5512 16.9178 13.6706 17.0675C13.7901 17.2173 13.8542 17.4036 13.8524 17.5952C13.8505 17.7867 13.7827 17.9718 13.6604 18.1192C13.5381 18.2666 13.3688 18.3674 13.1809 18.4046C12.2317 18.5946 11.5284 17.9612 11.5284 17.1337L11.53 16.7621L11.5342 16.1746C11.5384 15.5846 11.54 15.0596 11.54 14.5096C11.54 13.9287 11.3875 13.5496 11.1859 13.3762C10.635 12.9012 10.9142 11.9971 11.6359 11.9162C14.1084 11.6387 15.25 10.6812 15.25 8.03291C15.25 7.23707 14.99 6.57957 14.4892 6.02957C14.3837 5.91394 14.3129 5.77093 14.2849 5.61691C14.2568 5.4629 14.2728 5.30411 14.3309 5.15874C14.4692 4.81374 14.5284 4.36124 14.4109 3.81374L14.4025 3.81624C13.9934 3.93207 13.4775 4.1829 12.8542 4.60707C12.7537 4.67528 12.6395 4.7207 12.5196 4.74013C12.3996 4.75956 12.2769 4.75255 12.16 4.71957C11.4566 4.52481 10.7299 4.42696 10 4.42874C9.25836 4.42874 8.52336 4.5279 7.84002 4.7204C7.72354 4.75312 7.60133 4.76008 7.48188 4.74079C7.36244 4.72151 7.24863 4.67645 7.14836 4.60874C6.52169 4.18624 6.00336 3.93624 5.59169 3.81957C5.47169 4.36374 5.53086 4.81457 5.66836 5.15874C5.72653 5.30404 5.74261 5.46278 5.71476 5.61679C5.6869 5.7708 5.61624 5.91386 5.51086 6.02957C5.01336 6.57457 4.75002 7.24457 4.75002 8.03291C4.75002 10.6762 5.89252 11.6396 8.35169 11.9162C9.07252 11.9971 9.35252 12.8971 8.80502 13.3729C8.64502 13.5129 8.44752 13.9829 8.44752 14.5096V17.1346C8.44752 17.9562 7.75169 18.5721 6.81419 18.4079C6.624 18.3745 6.4513 18.2761 6.32562 18.1295C6.19994 17.9829 6.12908 17.7972 6.12514 17.6041C6.12121 17.411 6.18444 17.2226 6.30404 17.071C6.42364 16.9194 6.59218 16.814 6.78086 16.7729V15.9479C6.02252 15.9987 5.39586 15.8746 4.90252 15.5437Z" fill="white"/>
</svg>
