<svg width="20" height="20" viewBox="0 0 20 20" fill="none" xmlns="http://www.w3.org/2000/svg">
<path d="M9.99984 7.50033C9.3368 7.50033 8.70091 7.76372 8.23207 8.23256C7.76323 8.7014 7.49984 9.33728 7.49984 10.0003C7.49984 10.6634 7.76323 11.2993 8.23207 11.7681C8.70091 12.2369 9.3368 12.5003 9.99984 12.5003C10.6629 12.5003 11.2988 12.2369 11.7676 11.7681C12.2364 11.2993 12.4998 10.6634 12.4998 10.0003C12.4998 9.33728 12.2364 8.7014 11.7676 8.23256C11.2988 7.76372 10.6629 7.50033 9.99984 7.50033ZM9.99984 5.83366C11.1049 5.83366 12.1647 6.27265 12.9461 7.05405C13.7275 7.83545 14.1665 8.89526 14.1665 10.0003C14.1665 11.1054 13.7275 12.1652 12.9461 12.9466C12.1647 13.728 11.1049 14.167 9.99984 14.167C8.89477 14.167 7.83496 13.728 7.05356 12.9466C6.27216 12.1652 5.83317 11.1054 5.83317 10.0003C5.83317 8.89526 6.27216 7.83545 7.05356 7.05405C7.83496 6.27265 8.89477 5.83366 9.99984 5.83366ZM15.4165 5.62533C15.4165 5.90159 15.3068 6.16654 15.1114 6.3619C14.9161 6.55725 14.6511 6.66699 14.3748 6.66699C14.0986 6.66699 13.8336 6.55725 13.6383 6.3619C13.4429 6.16654 13.3332 5.90159 13.3332 5.62533C13.3332 5.34906 13.4429 5.08411 13.6383 4.88876C13.8336 4.69341 14.0986 4.58366 14.3748 4.58366C14.6511 4.58366 14.9161 4.69341 15.1114 4.88876C15.3068 5.08411 15.4165 5.34906 15.4165 5.62533ZM9.99984 3.33366C7.93817 3.33366 7.6015 3.33949 6.64234 3.38199C5.989 3.41283 5.55067 3.50033 5.144 3.65866C4.78234 3.79866 4.5215 3.96616 4.244 4.24449C3.98318 4.49649 3.78263 4.80415 3.65734 5.14449C3.499 5.55283 3.4115 5.99033 3.3815 6.64283C3.33817 7.56283 3.33317 7.88449 3.33317 10.0003C3.33317 12.062 3.339 12.3987 3.3815 13.3578C3.41234 14.0103 3.49984 14.4495 3.65734 14.8553C3.799 15.2178 3.96567 15.4787 4.24234 15.7553C4.52317 16.0353 4.784 16.2028 5.14234 16.3412C5.554 16.5003 5.99234 16.5887 6.64234 16.6187C7.56234 16.662 7.884 16.667 9.99984 16.667C12.0615 16.667 12.3982 16.6612 13.3573 16.6187C14.009 16.5878 14.4482 16.5003 14.8548 16.3428C15.2157 16.202 15.4782 16.0345 15.7548 15.7578C16.0357 15.477 16.2032 15.2162 16.3415 14.8578C16.4998 14.447 16.5882 14.0078 16.6182 13.3578C16.6615 12.4378 16.6665 12.1162 16.6665 10.0003C16.6665 7.93866 16.6607 7.60199 16.6182 6.64283C16.5873 5.99116 16.4998 5.55116 16.3415 5.14449C16.2159 4.80449 16.0157 4.49696 15.7557 4.24449C15.5038 3.98353 15.1961 3.78296 14.8557 3.65783C14.4473 3.49949 14.009 3.41199 13.3573 3.38199C12.4373 3.33866 12.1157 3.33366 9.99984 3.33366ZM9.99984 1.66699C12.264 1.66699 12.5465 1.67533 13.4348 1.71699C14.3223 1.75866 14.9265 1.89783 15.4582 2.10449C16.0082 2.31616 16.4715 2.60283 16.9348 3.06533C17.3586 3.48191 17.6865 3.98582 17.8957 4.54199C18.1015 5.07283 18.2415 5.67783 18.2832 6.56533C18.3223 7.45366 18.3332 7.73616 18.3332 10.0003C18.3332 12.2645 18.3248 12.547 18.2832 13.4353C18.2415 14.3228 18.1015 14.927 17.8957 15.4587C17.6871 16.0151 17.3591 16.5192 16.9348 16.9353C16.5181 17.3589 16.0143 17.6868 15.4582 17.8962C14.9273 18.102 14.3223 18.242 13.4348 18.2837C12.5465 18.3228 12.264 18.3337 9.99984 18.3337C7.73567 18.3337 7.45317 18.3253 6.56484 18.2837C5.67734 18.242 5.07317 18.102 4.5415 17.8962C3.98511 17.6874 3.48111 17.3594 3.06484 16.9353C2.64101 16.5188 2.31311 16.0149 2.104 15.4587C1.89734 14.9278 1.75817 14.3228 1.7165 13.4353C1.67734 12.547 1.6665 12.2645 1.6665 10.0003C1.6665 7.73616 1.67484 7.45366 1.7165 6.56533C1.75817 5.67699 1.89734 5.07366 2.104 4.54199C2.31253 3.98548 2.64051 3.48143 3.06484 3.06533C3.48123 2.64135 3.98519 2.31343 4.5415 2.10449C5.07317 1.89783 5.6765 1.75866 6.56484 1.71699C7.45317 1.67783 7.73567 1.66699 9.99984 1.66699Z" fill="white"/>
</svg>
