<svg width="20" height="20" viewBox="0 0 20 20" fill="none" xmlns="http://www.w3.org/2000/svg">
<path d="M3.33333 2.5H16.6667C16.8877 2.5 17.0996 2.5878 17.2559 2.74408C17.4122 2.90036 17.5 3.11232 17.5 3.33333V16.6667C17.5 16.8877 17.4122 17.0996 17.2559 17.2559C17.0996 17.4122 16.8877 17.5 16.6667 17.5H3.33333C3.11232 17.5 2.90036 17.4122 2.74408 17.2559C2.5878 17.0996 2.5 16.8877 2.5 16.6667V3.33333C2.5 3.11232 2.5878 2.90036 2.74408 2.74408C2.90036 2.5878 3.11232 2.5 3.33333 2.5ZM4.16667 4.16667V15.8333H15.8333V4.16667H4.16667ZM6.25 7.5C5.91848 7.5 5.60054 7.3683 5.36612 7.13388C5.1317 6.89946 5 6.58152 5 6.25C5 5.91848 5.1317 5.60054 5.36612 5.36612C5.60054 5.1317 5.91848 5 6.25 5C6.58152 5 6.89946 5.1317 7.13388 5.36612C7.3683 5.60054 7.5 5.91848 7.5 6.25C7.5 6.58152 7.3683 6.89946 7.13388 7.13388C6.89946 7.3683 6.58152 7.5 6.25 7.5ZM5.41667 8.33333H7.08333V14.5833H5.41667V8.33333ZM10 8.69167C10.4867 8.22083 11.055 7.91667 11.6667 7.91667C13.3925 7.91667 14.5833 9.31583 14.5833 11.0417V14.5833H12.9167V11.0417C12.9167 10.6549 12.763 10.284 12.4895 10.0105C12.216 9.73698 11.8451 9.58333 11.4583 9.58333C11.0716 9.58333 10.7006 9.73698 10.4271 10.0105C10.1536 10.284 10 10.6549 10 11.0417V14.5833H8.33333V8.33333H10V8.69167Z" fill="white"/>
</svg>
