<svg width="32" height="32" viewBox="0 0 32 32" fill="none" xmlns="http://www.w3.org/2000/svg">
<path d="M5.33333 4H26.6667C27.0203 4 27.3594 4.14048 27.6095 4.39052C27.8595 4.64057 28 4.97971 28 5.33333V26.6667C28 27.0203 27.8595 27.3594 27.6095 27.6095C27.3594 27.8595 27.0203 28 26.6667 28H5.33333C4.97971 28 4.64057 27.8595 4.39052 27.6095C4.14048 27.3594 4 27.0203 4 26.6667V5.33333C4 4.97971 4.14048 4.64057 4.39052 4.39052C4.64057 4.14048 4.97971 4 5.33333 4ZM23.0667 21.2533C22.9333 21.1867 22.8667 20.9867 22.8667 20.852V10.6747C22.8667 10.5413 22.9333 10.3413 23.0667 10.2067L24.34 8.73333V8.66667H19.7867L16.3733 17.304L12.488 8.66667H7.80267V8.73333L9.00667 10.408C9.27467 10.6747 9.34133 11.0773 9.34133 11.412V18.776C9.408 19.1787 9.34133 19.6467 9.14133 20.048L7.33333 22.5253V22.592H12.1547V22.5253L10.3467 20.116C10.1467 19.7133 10.0787 19.312 10.1467 18.844V12.1467C10.2133 12.28 10.28 12.28 10.3467 12.548L14.8987 22.7253H14.9653L19.3867 11.68C19.32 12.08 19.32 12.5493 19.32 12.8853V20.7853C19.32 20.9853 19.2533 21.1187 19.12 21.2533L17.78 22.5253V22.592H24.3413V22.5253L23.0693 21.2533H23.0667Z" fill="black"/>
</svg>
