<svg width="20" height="20" viewBox="0 0 20 20" fill="none" xmlns="http://www.w3.org/2000/svg">
<path d="M8.33366 5.83317C8.33349 6.99204 8.6785 8.12469 9.32468 9.08668C9.97086 10.0487 10.8889 10.7964 11.9618 11.2345C13.0347 11.6726 14.2137 11.7812 15.3486 11.5464C16.4834 11.3117 17.5226 10.7443 18.3337 9.9165V9.99984C18.3337 14.6023 14.6028 18.3332 10.0003 18.3332C5.39783 18.3332 1.66699 14.6023 1.66699 9.99984C1.66699 5.39734 5.39783 1.6665 10.0003 1.6665H10.0837C9.52869 2.20911 9.08794 2.85731 8.78739 3.57291C8.48684 4.2885 8.33257 5.05702 8.33366 5.83317ZM3.33366 9.99984C3.33305 11.4873 3.82993 12.9323 4.74524 14.1048C5.66054 15.2773 6.94169 16.1101 8.38484 16.4705C9.82798 16.831 11.3502 16.6984 12.7094 16.094C14.0685 15.4895 15.1864 14.4479 15.8853 13.1348C14.6415 13.4279 13.3435 13.3982 12.1143 13.0488C10.8852 12.6993 9.76575 12.0416 8.86217 11.138C7.95859 10.2344 7.30086 9.11495 6.95139 7.88582C6.60192 6.65668 6.5723 5.35864 6.86533 4.11484C5.79831 4.68329 4.90598 5.53122 4.28387 6.56787C3.66177 7.60452 3.33331 8.79085 3.33366 9.99984Z" fill="white"/>
</svg>
