<svg width="20" height="20" viewBox="0 0 20 20" fill="none" xmlns="http://www.w3.org/2000/svg">
<path d="M5.83317 4.16683V1.66683C5.83317 1.44582 5.92097 1.23385 6.07725 1.07757C6.23353 0.921293 6.44549 0.833496 6.6665 0.833496H13.3332C13.5542 0.833496 13.7661 0.921293 13.9224 1.07757C14.0787 1.23385 14.1665 1.44582 14.1665 1.66683V4.16683H17.4998C17.7209 4.16683 17.9328 4.25463 18.0891 4.41091C18.2454 4.56719 18.3332 4.77915 18.3332 5.00016V16.6668C18.3332 16.8878 18.2454 17.0998 18.0891 17.2561C17.9328 17.4124 17.7209 17.5002 17.4998 17.5002H2.49984C2.27882 17.5002 2.06686 17.4124 1.91058 17.2561C1.7543 17.0998 1.6665 16.8878 1.6665 16.6668V5.00016C1.6665 4.77915 1.7543 4.56719 1.91058 4.41091C2.06686 4.25463 2.27882 4.16683 2.49984 4.16683H5.83317ZM3.33317 13.3335V15.8335H16.6665V13.3335H3.33317ZM3.33317 11.6668H16.6665V5.8335H3.33317V11.6668ZM7.49984 2.50016V4.16683H12.4998V2.50016H7.49984ZM9.1665 9.16683H10.8332V10.8335H9.1665V9.16683Z" fill="black"/>
</svg>
