<svg width="20" height="20" viewBox="0 0 20 20" fill="none" xmlns="http://www.w3.org/2000/svg">
<path d="M9.99992 15.0002C8.67384 15.0002 7.40207 14.4734 6.46438 13.5357C5.5267 12.598 4.99992 11.3262 4.99992 10.0002C4.99992 8.67408 5.5267 7.40231 6.46438 6.46463C7.40207 5.52695 8.67384 5.00016 9.99992 5.00016C11.326 5.00016 12.5978 5.52695 13.5355 6.46463C14.4731 7.40231 14.9999 8.67408 14.9999 10.0002C14.9999 11.3262 14.4731 12.598 13.5355 13.5357C12.5978 14.4734 11.326 15.0002 9.99992 15.0002ZM9.99992 13.3335C10.884 13.3335 11.7318 12.9823 12.3569 12.3572C12.9821 11.7321 13.3333 10.8842 13.3333 10.0002C13.3333 9.11611 12.9821 8.26826 12.3569 7.64314C11.7318 7.01802 10.884 6.66683 9.99992 6.66683C9.11586 6.66683 8.26802 7.01802 7.6429 7.64314C7.01777 8.26826 6.66658 9.11611 6.66658 10.0002C6.66658 10.8842 7.01777 11.7321 7.6429 12.3572C8.26802 12.9823 9.11586 13.3335 9.99992 13.3335ZM9.16658 0.833496H10.8333V3.3335H9.16658V0.833496ZM9.16658 16.6668H10.8333V19.1668H9.16658V16.6668ZM2.92909 4.10766L4.10742 2.92933L5.87492 4.69683L4.69658 5.87516L2.92909 4.1085V4.10766ZM14.1249 15.3035L15.3033 14.1252L17.0708 15.8927L15.8924 17.071L14.1249 15.3035ZM15.8924 2.9285L17.0708 4.10766L15.3033 5.87516L14.1249 4.69683L15.8924 2.92933V2.9285ZM4.69658 14.1252L5.87492 15.3035L4.10742 17.071L2.92909 15.8927L4.69658 14.1252ZM19.1666 9.16683V10.8335H16.6666V9.16683H19.1666ZM3.33325 9.16683V10.8335H0.833252V9.16683H3.33325Z" fill="black"/>
</svg>
